<mxfile host="Electron" modified="2023-06-14T15:07:10.051Z" agent="Mozilla/5.0 (Windows NT 10.0; Win64; x64) AppleWebKit/537.36 (KHTML, like Gecko) draw.io/21.2.8 Chrome/112.0.5615.165 Electron/24.2.0 Safari/537.36" etag="bnaDrZ3M9ukMT9mc9T23" version="21.2.8" type="device" pages="4">
  <diagram name="Concept" id="0JkEDj4luWwhdR1_AXKQ">
    <mxGraphModel dx="1313" dy="849" grid="1" gridSize="10" guides="1" tooltips="1" connect="1" arrows="1" fold="1" page="1" pageScale="1" pageWidth="827" pageHeight="1169" math="0" shadow="0">
      <root>
        <mxCell id="0" />
        <mxCell id="1" parent="0" />
        <mxCell id="n7QfeJM6MNvqeBvDFVXJ-9" style="edgeStyle=orthogonalEdgeStyle;rounded=0;orthogonalLoop=1;jettySize=auto;html=1;" parent="1" target="n7QfeJM6MNvqeBvDFVXJ-2" edge="1">
          <mxGeometry relative="1" as="geometry">
            <mxPoint x="1025" y="110" as="sourcePoint" />
          </mxGeometry>
        </mxCell>
        <mxCell id="n7QfeJM6MNvqeBvDFVXJ-17" value="Scraps News WebPages" style="edgeLabel;html=1;align=center;verticalAlign=middle;resizable=0;points=[];" parent="n7QfeJM6MNvqeBvDFVXJ-9" vertex="1" connectable="0">
          <mxGeometry x="0.1914" relative="1" as="geometry">
            <mxPoint x="-22" y="-15" as="offset" />
          </mxGeometry>
        </mxCell>
        <mxCell id="n7QfeJM6MNvqeBvDFVXJ-1" value="Internet" style="ellipse;shape=cloud;whiteSpace=wrap;html=1;" parent="1" vertex="1">
          <mxGeometry x="950" y="20" width="190" height="110" as="geometry" />
        </mxCell>
        <mxCell id="n7QfeJM6MNvqeBvDFVXJ-6" style="edgeStyle=orthogonalEdgeStyle;rounded=0;orthogonalLoop=1;jettySize=auto;html=1;exitX=0.5;exitY=1;exitDx=0;exitDy=0;" parent="1" source="n7QfeJM6MNvqeBvDFVXJ-2" target="n7QfeJM6MNvqeBvDFVXJ-7" edge="1">
          <mxGeometry relative="1" as="geometry">
            <mxPoint x="940" y="335.5" as="targetPoint" />
          </mxGeometry>
        </mxCell>
        <mxCell id="n7QfeJM6MNvqeBvDFVXJ-2" value="Mining and InitialFormatting" style="rounded=1;whiteSpace=wrap;html=1;fillColor=#fff2cc;strokeColor=#d6b656;" parent="1" vertex="1">
          <mxGeometry x="880" y="205.5" width="120" height="60" as="geometry" />
        </mxCell>
        <mxCell id="z5Gwea9jlStlXULSZlxG-7" style="edgeStyle=orthogonalEdgeStyle;rounded=0;orthogonalLoop=1;jettySize=auto;html=1;exitX=0.145;exitY=0;exitDx=0;exitDy=4.35;exitPerimeter=0;entryX=1;entryY=0.5;entryDx=0;entryDy=0;" parent="1" source="n7QfeJM6MNvqeBvDFVXJ-7" target="z5Gwea9jlStlXULSZlxG-2" edge="1">
          <mxGeometry relative="1" as="geometry">
            <Array as="points">
              <mxPoint x="694" y="230" />
            </Array>
          </mxGeometry>
        </mxCell>
        <mxCell id="n7QfeJM6MNvqeBvDFVXJ-7" value="DataLake" style="shape=cylinder3;whiteSpace=wrap;html=1;boundedLbl=1;backgroundOutline=1;size=15;fillColor=#fff2cc;strokeColor=#d6b656;" parent="1" vertex="1">
          <mxGeometry x="669" y="278" width="169" height="175" as="geometry" />
        </mxCell>
        <mxCell id="n7QfeJM6MNvqeBvDFVXJ-24" style="edgeStyle=orthogonalEdgeStyle;rounded=0;orthogonalLoop=1;jettySize=auto;html=1;exitX=0.31;exitY=0.8;exitDx=0;exitDy=0;exitPerimeter=0;entryX=0.25;entryY=0;entryDx=0;entryDy=0;" parent="1" source="n7QfeJM6MNvqeBvDFVXJ-12" target="n7QfeJM6MNvqeBvDFVXJ-21" edge="1">
          <mxGeometry relative="1" as="geometry" />
        </mxCell>
        <mxCell id="n7QfeJM6MNvqeBvDFVXJ-28" style="edgeStyle=orthogonalEdgeStyle;rounded=0;orthogonalLoop=1;jettySize=auto;html=1;exitX=0.07;exitY=0.4;exitDx=0;exitDy=0;exitPerimeter=0;entryX=0;entryY=0.75;entryDx=0;entryDy=0;" parent="1" source="n7QfeJM6MNvqeBvDFVXJ-12" target="n7QfeJM6MNvqeBvDFVXJ-26" edge="1">
          <mxGeometry relative="1" as="geometry">
            <Array as="points">
              <mxPoint x="40" y="64" />
              <mxPoint x="40" y="545" />
            </Array>
          </mxGeometry>
        </mxCell>
        <mxCell id="n7QfeJM6MNvqeBvDFVXJ-12" value="OpenAI" style="ellipse;shape=cloud;whiteSpace=wrap;html=1;" parent="1" vertex="1">
          <mxGeometry x="80" y="20" width="190" height="110" as="geometry" />
        </mxCell>
        <mxCell id="n7QfeJM6MNvqeBvDFVXJ-18" value="Process HTML" style="text;html=1;align=center;verticalAlign=middle;resizable=0;points=[];autosize=1;strokeColor=none;fillColor=none;" parent="1" vertex="1">
          <mxGeometry x="838" y="175.5" width="100" height="30" as="geometry" />
        </mxCell>
        <mxCell id="n7QfeJM6MNvqeBvDFVXJ-29" style="edgeStyle=orthogonalEdgeStyle;rounded=0;orthogonalLoop=1;jettySize=auto;html=1;exitX=0.5;exitY=1;exitDx=0;exitDy=0;exitPerimeter=0;entryX=0.25;entryY=0;entryDx=0;entryDy=0;" parent="1" source="n7QfeJM6MNvqeBvDFVXJ-20" target="n7QfeJM6MNvqeBvDFVXJ-26" edge="1">
          <mxGeometry relative="1" as="geometry">
            <Array as="points">
              <mxPoint x="175" y="480" />
              <mxPoint x="280" y="480" />
            </Array>
          </mxGeometry>
        </mxCell>
        <mxCell id="n7QfeJM6MNvqeBvDFVXJ-20" value="Context Collection" style="shape=cylinder3;whiteSpace=wrap;html=1;boundedLbl=1;backgroundOutline=1;size=15;" parent="1" vertex="1">
          <mxGeometry x="120.5" y="322.5" width="109" height="125" as="geometry" />
        </mxCell>
        <mxCell id="n7QfeJM6MNvqeBvDFVXJ-23" style="edgeStyle=orthogonalEdgeStyle;rounded=0;orthogonalLoop=1;jettySize=auto;html=1;exitX=0.75;exitY=0;exitDx=0;exitDy=0;entryX=0.655;entryY=0.953;entryDx=0;entryDy=0;entryPerimeter=0;" parent="1" source="n7QfeJM6MNvqeBvDFVXJ-21" target="n7QfeJM6MNvqeBvDFVXJ-12" edge="1">
          <mxGeometry relative="1" as="geometry" />
        </mxCell>
        <mxCell id="n7QfeJM6MNvqeBvDFVXJ-25" style="edgeStyle=orthogonalEdgeStyle;rounded=0;orthogonalLoop=1;jettySize=auto;html=1;exitX=0.5;exitY=1;exitDx=0;exitDy=0;entryX=0.5;entryY=0;entryDx=0;entryDy=0;entryPerimeter=0;" parent="1" source="n7QfeJM6MNvqeBvDFVXJ-21" target="n7QfeJM6MNvqeBvDFVXJ-20" edge="1">
          <mxGeometry relative="1" as="geometry" />
        </mxCell>
        <mxCell id="n7QfeJM6MNvqeBvDFVXJ-21" value="Create Context" style="rounded=1;whiteSpace=wrap;html=1;" parent="1" vertex="1">
          <mxGeometry x="115" y="200" width="120" height="60" as="geometry" />
        </mxCell>
        <mxCell id="n7QfeJM6MNvqeBvDFVXJ-27" style="edgeStyle=orthogonalEdgeStyle;rounded=0;orthogonalLoop=1;jettySize=auto;html=1;exitX=0;exitY=0.25;exitDx=0;exitDy=0;entryX=0.13;entryY=0.77;entryDx=0;entryDy=0;entryPerimeter=0;" parent="1" source="n7QfeJM6MNvqeBvDFVXJ-26" target="n7QfeJM6MNvqeBvDFVXJ-12" edge="1">
          <mxGeometry relative="1" as="geometry">
            <Array as="points">
              <mxPoint x="70" y="515" />
              <mxPoint x="70" y="105" />
            </Array>
          </mxGeometry>
        </mxCell>
        <mxCell id="n7QfeJM6MNvqeBvDFVXJ-32" style="edgeStyle=orthogonalEdgeStyle;rounded=0;orthogonalLoop=1;jettySize=auto;html=1;exitX=0.5;exitY=1;exitDx=0;exitDy=0;entryX=0.5;entryY=0;entryDx=0;entryDy=0;entryPerimeter=0;" parent="1" source="n7QfeJM6MNvqeBvDFVXJ-26" target="n7QfeJM6MNvqeBvDFVXJ-31" edge="1">
          <mxGeometry relative="1" as="geometry" />
        </mxCell>
        <mxCell id="n7QfeJM6MNvqeBvDFVXJ-26" value="Curator" style="rounded=1;whiteSpace=wrap;html=1;" parent="1" vertex="1">
          <mxGeometry x="250" y="500" width="120" height="60" as="geometry" />
        </mxCell>
        <mxCell id="n7QfeJM6MNvqeBvDFVXJ-45" style="edgeStyle=orthogonalEdgeStyle;rounded=0;orthogonalLoop=1;jettySize=auto;html=1;exitX=1;exitY=0;exitDx=0;exitDy=93.75;exitPerimeter=0;entryX=0;entryY=0.75;entryDx=0;entryDy=0;" parent="1" source="n7QfeJM6MNvqeBvDFVXJ-31" target="n7QfeJM6MNvqeBvDFVXJ-42" edge="1">
          <mxGeometry relative="1" as="geometry" />
        </mxCell>
        <mxCell id="n7QfeJM6MNvqeBvDFVXJ-31" value="Processed DataBase" style="shape=cylinder3;whiteSpace=wrap;html=1;boundedLbl=1;backgroundOutline=1;size=15;" parent="1" vertex="1">
          <mxGeometry x="250" y="620" width="120" height="135" as="geometry" />
        </mxCell>
        <mxCell id="n7QfeJM6MNvqeBvDFVXJ-33" value="WebMining" style="shape=umlFrame;whiteSpace=wrap;html=1;pointerEvents=0;fillColor=none;width=70;height=40;flipH=1;dashed=1;" parent="1" vertex="1">
          <mxGeometry x="660" y="135.5" width="480" height="340" as="geometry" />
        </mxCell>
        <mxCell id="n7QfeJM6MNvqeBvDFVXJ-34" value="Context&amp;nbsp;&lt;br&gt;Processor" style="shape=umlFrame;whiteSpace=wrap;html=1;pointerEvents=0;fillColor=none;width=70;height=40;flipH=1;dashed=1;" parent="1" vertex="1">
          <mxGeometry x="90" y="150" width="210" height="310" as="geometry" />
        </mxCell>
        <mxCell id="n7QfeJM6MNvqeBvDFVXJ-36" value="Curator" style="shape=umlFrame;whiteSpace=wrap;html=1;pointerEvents=0;fillColor=none;width=70;height=40;flipH=1;flipV=1;dashed=1;" parent="1" vertex="1">
          <mxGeometry x="210" y="490" width="250.5" height="290" as="geometry" />
        </mxCell>
        <mxCell id="n7QfeJM6MNvqeBvDFVXJ-43" style="edgeStyle=orthogonalEdgeStyle;rounded=0;orthogonalLoop=1;jettySize=auto;html=1;exitX=0;exitY=0.25;exitDx=0;exitDy=0;entryX=1;entryY=0;entryDx=0;entryDy=41.25;entryPerimeter=0;" parent="1" source="n7QfeJM6MNvqeBvDFVXJ-42" target="n7QfeJM6MNvqeBvDFVXJ-31" edge="1">
          <mxGeometry relative="1" as="geometry" />
        </mxCell>
        <mxCell id="n7QfeJM6MNvqeBvDFVXJ-42" value="User Interface" style="swimlane;whiteSpace=wrap;html=1;" parent="1" vertex="1">
          <mxGeometry x="550" y="560" width="200" height="200" as="geometry" />
        </mxCell>
        <mxCell id="n7QfeJM6MNvqeBvDFVXJ-44" value="Asks for Data" style="text;html=1;align=center;verticalAlign=middle;resizable=0;points=[];autosize=1;strokeColor=none;fillColor=none;" parent="1" vertex="1">
          <mxGeometry x="460" y="585" width="100" height="30" as="geometry" />
        </mxCell>
        <mxCell id="n7QfeJM6MNvqeBvDFVXJ-46" value="Sends Results" style="text;html=1;align=center;verticalAlign=middle;resizable=0;points=[];autosize=1;strokeColor=none;fillColor=none;" parent="1" vertex="1">
          <mxGeometry x="360.5" y="690" width="100" height="30" as="geometry" />
        </mxCell>
        <mxCell id="z5Gwea9jlStlXULSZlxG-1" value="News Isolation" style="shape=umlFrame;whiteSpace=wrap;html=1;pointerEvents=0;fillColor=none;width=70;height=40;flipH=1;dashed=1;" parent="1" vertex="1">
          <mxGeometry x="320" y="150.5" width="320" height="310" as="geometry" />
        </mxCell>
        <mxCell id="z5Gwea9jlStlXULSZlxG-5" style="edgeStyle=orthogonalEdgeStyle;rounded=0;orthogonalLoop=1;jettySize=auto;html=1;" parent="1" source="z5Gwea9jlStlXULSZlxG-2" target="z5Gwea9jlStlXULSZlxG-4" edge="1">
          <mxGeometry relative="1" as="geometry" />
        </mxCell>
        <mxCell id="z5Gwea9jlStlXULSZlxG-8" style="edgeStyle=orthogonalEdgeStyle;rounded=0;orthogonalLoop=1;jettySize=auto;html=1;exitX=0.5;exitY=0;exitDx=0;exitDy=0;entryX=0.875;entryY=0.5;entryDx=0;entryDy=0;entryPerimeter=0;" parent="1" source="z5Gwea9jlStlXULSZlxG-2" target="n7QfeJM6MNvqeBvDFVXJ-12" edge="1">
          <mxGeometry relative="1" as="geometry">
            <Array as="points">
              <mxPoint x="480" y="75" />
            </Array>
          </mxGeometry>
        </mxCell>
        <mxCell id="z5Gwea9jlStlXULSZlxG-2" value="Isolate News from Raw Data" style="rounded=1;whiteSpace=wrap;html=1;" parent="1" vertex="1">
          <mxGeometry x="420" y="200" width="120" height="60" as="geometry" />
        </mxCell>
        <mxCell id="z5Gwea9jlStlXULSZlxG-9" style="edgeStyle=orthogonalEdgeStyle;rounded=0;orthogonalLoop=1;jettySize=auto;html=1;exitX=0;exitY=0;exitDx=0;exitDy=38.75;exitPerimeter=0;entryX=1;entryY=0.5;entryDx=0;entryDy=0;" parent="1" source="z5Gwea9jlStlXULSZlxG-4" target="n7QfeJM6MNvqeBvDFVXJ-21" edge="1">
          <mxGeometry relative="1" as="geometry" />
        </mxCell>
        <mxCell id="z5Gwea9jlStlXULSZlxG-10" style="edgeStyle=orthogonalEdgeStyle;rounded=0;orthogonalLoop=1;jettySize=auto;html=1;exitX=0.5;exitY=1;exitDx=0;exitDy=0;exitPerimeter=0;entryX=0.75;entryY=0;entryDx=0;entryDy=0;" parent="1" source="z5Gwea9jlStlXULSZlxG-4" target="n7QfeJM6MNvqeBvDFVXJ-26" edge="1">
          <mxGeometry relative="1" as="geometry">
            <Array as="points">
              <mxPoint x="480" y="480" />
              <mxPoint x="340" y="480" />
            </Array>
          </mxGeometry>
        </mxCell>
        <mxCell id="z5Gwea9jlStlXULSZlxG-4" value="News Collection" style="shape=cylinder3;whiteSpace=wrap;html=1;boundedLbl=1;backgroundOutline=1;size=15;" parent="1" vertex="1">
          <mxGeometry x="425.5" y="310" width="109" height="125" as="geometry" />
        </mxCell>
      </root>
    </mxGraphModel>
  </diagram>
  <diagram id="gIbVfU-cgGmom5-BpYF2" name="WebMiningModule (Class)">
    <mxGraphModel dx="1615" dy="1045" grid="1" gridSize="10" guides="1" tooltips="1" connect="1" arrows="1" fold="1" page="1" pageScale="1" pageWidth="827" pageHeight="1169" math="0" shadow="0">
      <root>
        <mxCell id="0" />
        <mxCell id="1" parent="0" />
        <mxCell id="siFha9QjPfDp4oNVsOVN-18" value="&lt;p style=&quot;margin:0px;margin-top:4px;text-align:center;&quot;&gt;&lt;i&gt;&amp;lt;&amp;lt;Singleton&amp;gt;&amp;gt;&lt;/i&gt;&lt;br&gt;&lt;b&gt;DatabaseConnection&lt;/b&gt;&lt;/p&gt;&lt;hr size=&quot;1&quot;&gt;&lt;p style=&quot;margin:0px;margin-left:4px;&quot;&gt;- databaseconnection_: DatabaseConnection&lt;br&gt;- client: mongocxx::client&lt;/p&gt;&lt;hr size=&quot;1&quot;&gt;&lt;p style=&quot;margin:0px;margin-left:4px;&quot;&gt;+ &lt;u&gt;getInstance(): DatabaseConnection*&lt;/u&gt;&lt;br&gt;+ getDatabase(string): mongocxx::database&lt;/p&gt;&lt;p style=&quot;margin:0px;margin-left:4px;&quot;&gt;&lt;br&gt;&lt;/p&gt;&lt;p style=&quot;margin:0px;margin-left:4px;&quot;&gt;-DatabaseConnection()&lt;/p&gt;" style="verticalAlign=top;align=left;overflow=fill;fontSize=12;fontFamily=Helvetica;html=1;whiteSpace=wrap;labelBackgroundColor=none;rounded=0;" parent="1" vertex="1">
          <mxGeometry x="760" y="659" width="190" height="200" as="geometry" />
        </mxCell>
        <mxCell id="nQZg-C1DoyDij6y3Y3TX-1" style="edgeStyle=orthogonalEdgeStyle;orthogonalLoop=1;jettySize=auto;html=1;exitX=0.5;exitY=1;exitDx=0;exitDy=0;entryX=0.5;entryY=0;entryDx=0;entryDy=0;fontSize=12;startSize=8;endSize=8;rounded=0;" edge="1" parent="1" source="cDeXMnXQh2IgX-abMTYr-1" target="cDeXMnXQh2IgX-abMTYr-3">
          <mxGeometry relative="1" as="geometry" />
        </mxCell>
        <mxCell id="nQZg-C1DoyDij6y3Y3TX-3" style="edgeStyle=orthogonalEdgeStyle;orthogonalLoop=1;jettySize=auto;html=1;exitX=1;exitY=0.5;exitDx=0;exitDy=0;entryX=0;entryY=0.5;entryDx=0;entryDy=0;fontSize=12;startSize=8;endSize=8;rounded=0;startArrow=diamondThin;startFill=1;strokeWidth=2;" edge="1" parent="1" source="cDeXMnXQh2IgX-abMTYr-1" target="cDeXMnXQh2IgX-abMTYr-2">
          <mxGeometry relative="1" as="geometry">
            <Array as="points">
              <mxPoint x="730" y="287" />
              <mxPoint x="730" y="365" />
            </Array>
          </mxGeometry>
        </mxCell>
        <mxCell id="nQZg-C1DoyDij6y3Y3TX-4" style="orthogonalLoop=1;jettySize=auto;html=1;exitX=1;exitY=0.75;exitDx=0;exitDy=0;entryX=0;entryY=0.5;entryDx=0;entryDy=0;fontSize=12;startSize=8;endSize=8;rounded=0;edgeStyle=orthogonalEdgeStyle;" edge="1" parent="1" source="cDeXMnXQh2IgX-abMTYr-1" target="cDeXMnXQh2IgX-abMTYr-4">
          <mxGeometry relative="1" as="geometry" />
        </mxCell>
        <mxCell id="cDeXMnXQh2IgX-abMTYr-1" value="&lt;p style=&quot;margin:0px;margin-top:4px;text-align:center;&quot;&gt;&lt;i&gt;&amp;lt;&amp;lt;Singleton&amp;gt;&amp;gt;&lt;/i&gt;&lt;br&gt;&lt;b&gt;WebMiningManager&lt;/b&gt;&lt;/p&gt;&lt;hr size=&quot;1&quot;&gt;&lt;p style=&quot;margin:0px;margin-left:4px;&quot;&gt;- webminingmanager_: WebMiningManager*&lt;br&gt;&lt;/p&gt;&lt;p style=&quot;margin:0px;margin-left:4px;&quot;&gt;- TUPPLE_SIZE: const int&lt;/p&gt;&lt;hr size=&quot;1&quot;&gt;&lt;p style=&quot;margin:0px;margin-left:4px;&quot;&gt;+ &lt;u&gt;getInstance(): WebMiningManager*&lt;/u&gt;&lt;/p&gt;&lt;p style=&quot;margin:0px;margin-left:4px;&quot;&gt;- WebMiningManager()&lt;u&gt;&lt;br&gt;&lt;/u&gt;&lt;br&gt;&lt;/p&gt;&lt;p style=&quot;margin:0px;margin-left:4px;&quot;&gt;+ ShowWebMiningMenu(): void&lt;/p&gt;&lt;p style=&quot;margin:0px;margin-left:4px;&quot;&gt;- RunWebScrapping(): void&lt;/p&gt;&lt;p style=&quot;margin:0px;margin-left:4px;&quot;&gt;- RunMiningThread(string&amp;amp;): void&lt;/p&gt;&lt;p style=&quot;margin:0px;margin-left:4px;&quot;&gt;- MonitorMiningStatus(vector&amp;lt;string&amp;gt;,&amp;nbsp; &amp;nbsp;vector&amp;lt;thread&amp;gt;: void&lt;/p&gt;&lt;p style=&quot;margin:0px;margin-left:4px;&quot;&gt;- getFoldersToProcess(vector&amp;lt;string&amp;gt;*): vector&amp;lt;string&amp;gt;&lt;/p&gt;&lt;p style=&quot;margin:0px;margin-left:4px;&quot;&gt;&lt;br&gt;&lt;/p&gt;" style="verticalAlign=top;align=left;overflow=fill;fontSize=12;fontFamily=Helvetica;html=1;whiteSpace=wrap;labelBackgroundColor=none;rounded=0;" vertex="1" parent="1">
          <mxGeometry x="340" y="140" width="270" height="293" as="geometry" />
        </mxCell>
        <mxCell id="cDeXMnXQh2IgX-abMTYr-2" value="&lt;p style=&quot;margin:0px;margin-top:4px;text-align:center;&quot;&gt;&lt;b&gt;WebScrapperSpider&lt;/b&gt;&lt;/p&gt;&lt;hr size=&quot;1&quot;&gt;&lt;p style=&quot;margin:0px;margin-left:4px;&quot;&gt;- filePath: string&lt;br&gt;- webScrapperDirectory: string&lt;/p&gt;&lt;p style=&quot;margin:0px;margin-left:4px;&quot;&gt;- spiderInit: string&lt;/p&gt;&lt;p style=&quot;margin:0px;margin-left:4px;&quot;&gt;- spider_map: map&lt;/p&gt;&lt;hr size=&quot;1&quot;&gt;&lt;p style=&quot;margin:0px;margin-left:4px;&quot;&gt;+ WebScrapperSpider(string)&lt;/p&gt;&lt;p style=&quot;margin:0px;margin-left:4px;&quot;&gt;+ operator(): void&lt;/p&gt;&lt;p style=&quot;margin:0px;margin-left:4px;&quot;&gt;&lt;br&gt;&lt;/p&gt;&lt;p style=&quot;margin:0px;margin-left:4px;&quot;&gt;- startSpider(): void&lt;/p&gt;&lt;p style=&quot;margin:0px;margin-left:4px;&quot;&gt;&lt;br&gt;&lt;/p&gt;" style="verticalAlign=top;align=left;overflow=fill;fontSize=12;fontFamily=Helvetica;html=1;whiteSpace=wrap;labelBackgroundColor=none;rounded=0;" vertex="1" parent="1">
          <mxGeometry x="990" y="280" width="270" height="170" as="geometry" />
        </mxCell>
        <mxCell id="nQZg-C1DoyDij6y3Y3TX-2" style="edgeStyle=orthogonalEdgeStyle;orthogonalLoop=1;jettySize=auto;html=1;exitX=1;exitY=0.75;exitDx=0;exitDy=0;entryX=0;entryY=0.5;entryDx=0;entryDy=0;fontSize=12;startSize=8;endSize=8;rounded=0;" edge="1" parent="1" source="cDeXMnXQh2IgX-abMTYr-3" target="siFha9QjPfDp4oNVsOVN-18">
          <mxGeometry relative="1" as="geometry" />
        </mxCell>
        <mxCell id="fcdBgJLopAXpnkT-_Eu4-2" style="edgeStyle=orthogonalEdgeStyle;orthogonalLoop=1;jettySize=auto;html=1;exitX=0.5;exitY=1;exitDx=0;exitDy=0;entryX=0.5;entryY=0;entryDx=0;entryDy=0;fontSize=12;startSize=8;endSize=8;rounded=0;" edge="1" parent="1" source="cDeXMnXQh2IgX-abMTYr-3" target="fcdBgJLopAXpnkT-_Eu4-1">
          <mxGeometry relative="1" as="geometry" />
        </mxCell>
        <mxCell id="fcdBgJLopAXpnkT-_Eu4-4" style="edgeStyle=orthogonalEdgeStyle;orthogonalLoop=1;jettySize=auto;html=1;exitX=1;exitY=0.25;exitDx=0;exitDy=0;entryX=0.5;entryY=1;entryDx=0;entryDy=0;fontSize=12;startSize=8;endSize=8;rounded=0;" edge="1" parent="1" source="cDeXMnXQh2IgX-abMTYr-3" target="cDeXMnXQh2IgX-abMTYr-4">
          <mxGeometry relative="1" as="geometry" />
        </mxCell>
        <mxCell id="cDeXMnXQh2IgX-abMTYr-3" value="&lt;p style=&quot;margin:0px;margin-top:4px;text-align:center;&quot;&gt;&amp;lt;&amp;lt;Static Class&amp;gt;&amp;gt;&lt;/p&gt;&lt;p style=&quot;margin:0px;margin-top:4px;text-align:center;&quot;&gt;&lt;b&gt;DataManager&lt;/b&gt;&lt;/p&gt;&lt;hr size=&quot;1&quot;&gt;&lt;p style=&quot;margin:0px;margin-left:4px;&quot;&gt;&lt;br&gt;&lt;/p&gt;&lt;hr size=&quot;1&quot;&gt;&lt;p style=&quot;margin:0px;margin-left:4px;&quot;&gt;+ &lt;u&gt;loadDataFromRaw(): void&lt;/u&gt;&lt;/p&gt;&lt;p style=&quot;margin:0px;margin-left:4px;&quot;&gt;- &lt;u&gt;readFilesIn Directory(string&amp;amp;): void&lt;/u&gt;&lt;/p&gt;&lt;p style=&quot;margin:0px;margin-left:4px;&quot;&gt;- &lt;u&gt;loadDocumentToDatabase(bsoncxx::document::value): void&lt;/u&gt;&lt;/p&gt;&lt;p style=&quot;margin:0px;margin-left:4px;&quot;&gt;&lt;br&gt;&lt;/p&gt;" style="verticalAlign=top;align=left;overflow=fill;fontSize=12;fontFamily=Helvetica;html=1;whiteSpace=wrap;labelBackgroundColor=none;rounded=0;" vertex="1" parent="1">
          <mxGeometry x="295" y="530" width="360" height="120" as="geometry" />
        </mxCell>
        <mxCell id="cDeXMnXQh2IgX-abMTYr-4" value="&lt;p style=&quot;margin:0px;margin-top:4px;text-align:center;&quot;&gt;&amp;lt;&amp;lt;Static Class&amp;gt;&amp;gt;&lt;/p&gt;&lt;p style=&quot;margin:0px;margin-top:4px;text-align:center;&quot;&gt;&lt;b&gt;WindowsUtilities&lt;/b&gt;&lt;/p&gt;&lt;hr size=&quot;1&quot;&gt;&lt;p style=&quot;margin:0px;margin-left:4px;&quot;&gt;&lt;br&gt;&lt;/p&gt;&lt;hr size=&quot;1&quot;&gt;&lt;p style=&quot;margin:0px;margin-left:4px;&quot;&gt;+ &lt;u&gt;loadRawFolders(): vector&amp;lt;string&amp;gt;&lt;/u&gt;&lt;/p&gt;&lt;p style=&quot;margin:0px;margin-left:4px;&quot;&gt;+ &lt;u&gt;countTxtFiles(string): int&lt;/u&gt;&lt;/p&gt;&lt;p style=&quot;margin:0px;margin-left:4px;&quot;&gt;&lt;br&gt;&lt;/p&gt;" style="verticalAlign=top;align=left;overflow=fill;fontSize=12;fontFamily=Helvetica;html=1;whiteSpace=wrap;labelBackgroundColor=none;rounded=0;" vertex="1" parent="1">
          <mxGeometry x="730" y="420" width="210" height="120" as="geometry" />
        </mxCell>
        <mxCell id="fcdBgJLopAXpnkT-_Eu4-1" value="&lt;p style=&quot;margin:0px;margin-top:4px;text-align:center;&quot;&gt;&amp;lt;&amp;lt;Static Class&amp;gt;&amp;gt;&lt;/p&gt;&lt;p style=&quot;margin:0px;margin-top:4px;text-align:center;&quot;&gt;&lt;b&gt;DocumentManager&lt;/b&gt;&lt;/p&gt;&lt;hr size=&quot;1&quot;&gt;&lt;p style=&quot;margin:0px;margin-left:4px;&quot;&gt;&lt;br&gt;&lt;/p&gt;&lt;hr size=&quot;1&quot;&gt;&lt;p style=&quot;margin:0px;margin-left:4px;&quot;&gt;&lt;u style=&quot;border-color: var(--border-color);&quot;&gt;+&amp;nbsp; CreateDocument(string): bsoncxx::document::value&lt;/u&gt;&lt;br&gt;&lt;/p&gt;&lt;p style=&quot;margin:0px;margin-left:4px;&quot;&gt;&lt;br&gt;&lt;/p&gt;" style="verticalAlign=top;align=left;overflow=fill;fontSize=12;fontFamily=Helvetica;html=1;whiteSpace=wrap;labelBackgroundColor=none;rounded=0;" vertex="1" parent="1">
          <mxGeometry x="230" y="740" width="165" height="119" as="geometry" />
        </mxCell>
        <mxCell id="fcdBgJLopAXpnkT-_Eu4-3" value="Each Spider instance lives in a different Thread." style="shape=note;whiteSpace=wrap;html=1;backgroundOutline=1;darkOpacity=0.05;fontSize=16;" vertex="1" parent="1">
          <mxGeometry x="790" y="250" width="190" height="100" as="geometry" />
        </mxCell>
      </root>
    </mxGraphModel>
  </diagram>
  <diagram id="0a4MrvlajHvWMAsoTMMK" name="WebMiningModule (Mining Sequence)">
    <mxGraphModel dx="1509" dy="1235" grid="1" gridSize="10" guides="1" tooltips="1" connect="1" arrows="1" fold="1" page="0" pageScale="1" pageWidth="827" pageHeight="1169" math="0" shadow="0">
      <root>
        <mxCell id="0" />
        <mxCell id="1" parent="0" />
        <mxCell id="ivDYFO53s6zkiEk83BOf-22" value="" style="html=1;verticalAlign=bottom;startArrow=oval;startFill=1;endArrow=block;startSize=8;edgeStyle=elbowEdgeStyle;elbow=vertical;curved=0;rounded=0;fontSize=12;" edge="1" parent="1" target="ivDYFO53s6zkiEk83BOf-5">
          <mxGeometry width="60" relative="1" as="geometry">
            <mxPoint x="860" y="920" as="sourcePoint" />
            <mxPoint x="920" y="920" as="targetPoint" />
          </mxGeometry>
        </mxCell>
        <mxCell id="ivDYFO53s6zkiEk83BOf-18" value="" style="html=1;verticalAlign=bottom;endArrow=open;dashed=1;endSize=8;edgeStyle=elbowEdgeStyle;elbow=vertical;curved=0;rounded=0;fontSize=12;" edge="1" parent="1" target="ivDYFO53s6zkiEk83BOf-15">
          <mxGeometry relative="1" as="geometry">
            <mxPoint x="1470" y="860" as="sourcePoint" />
            <mxPoint x="1390" y="860" as="targetPoint" />
          </mxGeometry>
        </mxCell>
        <mxCell id="ivDYFO53s6zkiEk83BOf-17" value="" style="html=1;verticalAlign=bottom;endArrow=open;dashed=1;endSize=8;edgeStyle=elbowEdgeStyle;elbow=vertical;curved=0;rounded=0;fontSize=12;" edge="1" parent="1" target="ivDYFO53s6zkiEk83BOf-13">
          <mxGeometry relative="1" as="geometry">
            <mxPoint x="1330" y="800" as="sourcePoint" />
            <mxPoint x="1250" y="800" as="targetPoint" />
          </mxGeometry>
        </mxCell>
        <mxCell id="ivDYFO53s6zkiEk83BOf-20" value="" style="html=1;verticalAlign=bottom;endArrow=open;dashed=1;endSize=8;edgeStyle=elbowEdgeStyle;elbow=vertical;curved=0;rounded=0;fontSize=12;" edge="1" parent="1" target="ivDYFO53s6zkiEk83BOf-16">
          <mxGeometry relative="1" as="geometry">
            <mxPoint x="1750" y="760" as="sourcePoint" />
            <mxPoint x="1670" y="760" as="targetPoint" />
          </mxGeometry>
        </mxCell>
        <mxCell id="ivDYFO53s6zkiEk83BOf-19" value="" style="html=1;verticalAlign=bottom;endArrow=open;dashed=1;endSize=8;edgeStyle=elbowEdgeStyle;elbow=vertical;curved=0;rounded=0;fontSize=12;" edge="1" parent="1" target="ivDYFO53s6zkiEk83BOf-14">
          <mxGeometry relative="1" as="geometry">
            <mxPoint x="1610" y="680.33" as="sourcePoint" />
            <mxPoint x="1530" y="680.33" as="targetPoint" />
          </mxGeometry>
        </mxCell>
        <mxCell id="ivDYFO53s6zkiEk83BOf-6" value="Launch Monitor Thread&lt;br&gt;and Join the Spiders" style="html=1;verticalAlign=bottom;startArrow=oval;endArrow=block;startSize=8;edgeStyle=elbowEdgeStyle;elbow=vertical;curved=0;rounded=0;fontSize=12;" edge="1" target="ivDYFO53s6zkiEk83BOf-5" parent="1" source="ivDYFO53s6zkiEk83BOf-4">
          <mxGeometry x="-0.3061" y="5" relative="1" as="geometry">
            <mxPoint x="870" y="520" as="sourcePoint" />
            <Array as="points">
              <mxPoint x="1010" y="520" />
            </Array>
            <mxPoint as="offset" />
          </mxGeometry>
        </mxCell>
        <mxCell id="3YghN3SEEvQ91oXFUEJ3-33" value="" style="html=1;verticalAlign=bottom;startArrow=oval;endArrow=block;startSize=8;edgeStyle=elbowEdgeStyle;elbow=vertical;curved=0;rounded=0;fontSize=12;" edge="1" parent="1" target="3YghN3SEEvQ91oXFUEJ3-32" source="3YghN3SEEvQ91oXFUEJ3-8">
          <mxGeometry relative="1" as="geometry">
            <mxPoint x="1280" y="350" as="sourcePoint" />
            <Array as="points">
              <mxPoint x="1490" y="350" />
              <mxPoint x="1330" y="400" />
            </Array>
          </mxGeometry>
        </mxCell>
        <mxCell id="3YghN3SEEvQ91oXFUEJ3-16" value="" style="html=1;verticalAlign=bottom;startArrow=oval;endArrow=block;startSize=8;edgeStyle=elbowEdgeStyle;elbow=vertical;curved=0;rounded=0;fontSize=12;" edge="1" target="3YghN3SEEvQ91oXFUEJ3-15" parent="1" source="3YghN3SEEvQ91oXFUEJ3-8">
          <mxGeometry relative="1" as="geometry">
            <mxPoint x="1000" y="320" as="sourcePoint" />
            <Array as="points">
              <mxPoint x="1090" y="320" />
            </Array>
          </mxGeometry>
        </mxCell>
        <mxCell id="3YghN3SEEvQ91oXFUEJ3-30" value="" style="html=1;verticalAlign=bottom;startArrow=oval;endArrow=block;startSize=8;edgeStyle=elbowEdgeStyle;elbow=vertical;curved=0;rounded=0;fontSize=12;" edge="1" parent="1" target="3YghN3SEEvQ91oXFUEJ3-29" source="3YghN3SEEvQ91oXFUEJ3-8">
          <mxGeometry relative="1" as="geometry">
            <mxPoint x="1140" y="340" as="sourcePoint" />
            <Array as="points">
              <mxPoint x="1230" y="340" />
            </Array>
          </mxGeometry>
        </mxCell>
        <mxCell id="3YghN3SEEvQ91oXFUEJ3-18" value="" style="html=1;verticalAlign=bottom;startArrow=oval;endArrow=block;startSize=8;edgeStyle=elbowEdgeStyle;elbow=vertical;curved=0;rounded=0;fontSize=12;" edge="1" target="3YghN3SEEvQ91oXFUEJ3-17" parent="1" source="3YghN3SEEvQ91oXFUEJ3-8">
          <mxGeometry relative="1" as="geometry">
            <mxPoint x="1215" y="360" as="sourcePoint" />
            <Array as="points">
              <mxPoint x="1150" y="330" />
            </Array>
          </mxGeometry>
        </mxCell>
        <mxCell id="3YghN3SEEvQ91oXFUEJ3-8" value="MainThread" style="shape=umlLifeline;perimeter=lifelinePerimeter;whiteSpace=wrap;html=1;container=1;dropTarget=0;collapsible=0;recursiveResize=0;outlineConnect=0;portConstraint=eastwest;newEdgeStyle={&quot;edgeStyle&quot;:&quot;elbowEdgeStyle&quot;,&quot;elbow&quot;:&quot;vertical&quot;,&quot;curved&quot;:0,&quot;rounded&quot;:0};fontSize=16;fillColor=#d5e8d4;strokeColor=#82b366;" vertex="1" parent="1">
          <mxGeometry x="760" y="40" width="190" height="1000" as="geometry" />
        </mxCell>
        <mxCell id="3YghN3SEEvQ91oXFUEJ3-14" value="" style="html=1;points=[];perimeter=orthogonalPerimeter;outlineConnect=0;targetShapes=umlLifeline;portConstraint=eastwest;newEdgeStyle={&quot;edgeStyle&quot;:&quot;elbowEdgeStyle&quot;,&quot;elbow&quot;:&quot;vertical&quot;,&quot;curved&quot;:0,&quot;rounded&quot;:0};fontSize=16;fillColor=#d5e8d4;strokeColor=#82b366;" vertex="1" parent="3YghN3SEEvQ91oXFUEJ3-8">
          <mxGeometry x="80" y="260" width="30" height="70" as="geometry" />
        </mxCell>
        <mxCell id="ivDYFO53s6zkiEk83BOf-4" value="" style="html=1;points=[];perimeter=orthogonalPerimeter;outlineConnect=0;targetShapes=umlLifeline;portConstraint=eastwest;newEdgeStyle={&quot;edgeStyle&quot;:&quot;elbowEdgeStyle&quot;,&quot;elbow&quot;:&quot;vertical&quot;,&quot;curved&quot;:0,&quot;rounded&quot;:0};fontSize=16;fillColor=#d5e8d4;strokeColor=#82b366;" vertex="1" parent="3YghN3SEEvQ91oXFUEJ3-8">
          <mxGeometry x="80" y="480" width="30" height="100" as="geometry" />
        </mxCell>
        <mxCell id="ivDYFO53s6zkiEk83BOf-13" value="" style="html=1;points=[];perimeter=orthogonalPerimeter;outlineConnect=0;targetShapes=umlLifeline;portConstraint=eastwest;newEdgeStyle={&quot;edgeStyle&quot;:&quot;elbowEdgeStyle&quot;,&quot;elbow&quot;:&quot;vertical&quot;,&quot;curved&quot;:0,&quot;rounded&quot;:0};fontSize=16;fillColor=#d5e8d4;strokeColor=#82b366;" vertex="1" parent="3YghN3SEEvQ91oXFUEJ3-8">
          <mxGeometry x="90" y="760" width="10" height="20" as="geometry" />
        </mxCell>
        <mxCell id="ivDYFO53s6zkiEk83BOf-14" value="" style="html=1;points=[];perimeter=orthogonalPerimeter;outlineConnect=0;targetShapes=umlLifeline;portConstraint=eastwest;newEdgeStyle={&quot;edgeStyle&quot;:&quot;elbowEdgeStyle&quot;,&quot;elbow&quot;:&quot;vertical&quot;,&quot;curved&quot;:0,&quot;rounded&quot;:0};fontSize=16;fillColor=#d5e8d4;strokeColor=#82b366;" vertex="1" parent="3YghN3SEEvQ91oXFUEJ3-8">
          <mxGeometry x="90" y="640" width="10" height="20" as="geometry" />
        </mxCell>
        <mxCell id="ivDYFO53s6zkiEk83BOf-15" value="" style="html=1;points=[];perimeter=orthogonalPerimeter;outlineConnect=0;targetShapes=umlLifeline;portConstraint=eastwest;newEdgeStyle={&quot;edgeStyle&quot;:&quot;elbowEdgeStyle&quot;,&quot;elbow&quot;:&quot;vertical&quot;,&quot;curved&quot;:0,&quot;rounded&quot;:0};fontSize=16;fillColor=#d5e8d4;strokeColor=#82b366;" vertex="1" parent="3YghN3SEEvQ91oXFUEJ3-8">
          <mxGeometry x="90" y="820" width="10" height="60" as="geometry" />
        </mxCell>
        <mxCell id="ivDYFO53s6zkiEk83BOf-16" value="" style="html=1;points=[];perimeter=orthogonalPerimeter;outlineConnect=0;targetShapes=umlLifeline;portConstraint=eastwest;newEdgeStyle={&quot;edgeStyle&quot;:&quot;elbowEdgeStyle&quot;,&quot;elbow&quot;:&quot;vertical&quot;,&quot;curved&quot;:0,&quot;rounded&quot;:0};fontSize=16;fillColor=#d5e8d4;strokeColor=#82b366;" vertex="1" parent="3YghN3SEEvQ91oXFUEJ3-8">
          <mxGeometry x="91" y="720" width="10" height="20" as="geometry" />
        </mxCell>
        <mxCell id="ivDYFO53s6zkiEk83BOf-29" value="" style="html=1;points=[];perimeter=orthogonalPerimeter;outlineConnect=0;targetShapes=umlLifeline;portConstraint=eastwest;newEdgeStyle={&quot;edgeStyle&quot;:&quot;elbowEdgeStyle&quot;,&quot;elbow&quot;:&quot;vertical&quot;,&quot;curved&quot;:0,&quot;rounded&quot;:0};fontSize=16;fillColor=#d5e8d4;strokeColor=#82b366;" vertex="1" parent="3YghN3SEEvQ91oXFUEJ3-8">
          <mxGeometry x="90" y="920" width="10" height="80" as="geometry" />
        </mxCell>
        <mxCell id="3YghN3SEEvQ91oXFUEJ3-10" value="Spider 1" style="shape=umlLifeline;perimeter=lifelinePerimeter;whiteSpace=wrap;html=1;container=1;dropTarget=0;collapsible=0;recursiveResize=0;outlineConnect=0;portConstraint=eastwest;newEdgeStyle={&quot;edgeStyle&quot;:&quot;elbowEdgeStyle&quot;,&quot;elbow&quot;:&quot;vertical&quot;,&quot;curved&quot;:0,&quot;rounded&quot;:0};fontSize=16;fillColor=#f8cecc;strokeColor=#b85450;" vertex="1" parent="1">
          <mxGeometry x="1270" y="240" width="120" height="570" as="geometry" />
        </mxCell>
        <mxCell id="3YghN3SEEvQ91oXFUEJ3-15" value="" style="html=1;points=[];perimeter=orthogonalPerimeter;outlineConnect=0;targetShapes=umlLifeline;portConstraint=eastwest;newEdgeStyle={&quot;edgeStyle&quot;:&quot;elbowEdgeStyle&quot;,&quot;elbow&quot;:&quot;vertical&quot;,&quot;curved&quot;:0,&quot;rounded&quot;:0};fontSize=16;fillColor=#f8cecc;strokeColor=#b85450;" vertex="1" parent="3YghN3SEEvQ91oXFUEJ3-10">
          <mxGeometry x="55" y="80" width="10" height="40" as="geometry" />
        </mxCell>
        <mxCell id="ivDYFO53s6zkiEk83BOf-7" value="" style="html=1;points=[];perimeter=orthogonalPerimeter;outlineConnect=0;targetShapes=umlLifeline;portConstraint=eastwest;newEdgeStyle={&quot;edgeStyle&quot;:&quot;elbowEdgeStyle&quot;,&quot;elbow&quot;:&quot;vertical&quot;,&quot;curved&quot;:0,&quot;rounded&quot;:0};fontSize=16;fillColor=#f8cecc;strokeColor=#b85450;" vertex="1" parent="3YghN3SEEvQ91oXFUEJ3-10">
          <mxGeometry x="55" y="330" width="10" height="230" as="geometry" />
        </mxCell>
        <mxCell id="3YghN3SEEvQ91oXFUEJ3-11" value="Spider 2" style="shape=umlLifeline;perimeter=lifelinePerimeter;whiteSpace=wrap;html=1;container=1;dropTarget=0;collapsible=0;recursiveResize=0;outlineConnect=0;portConstraint=eastwest;newEdgeStyle={&quot;edgeStyle&quot;:&quot;elbowEdgeStyle&quot;,&quot;elbow&quot;:&quot;vertical&quot;,&quot;curved&quot;:0,&quot;rounded&quot;:0};fontSize=16;fillColor=#f8cecc;strokeColor=#b85450;" vertex="1" parent="1">
          <mxGeometry x="1410" y="240" width="120" height="640" as="geometry" />
        </mxCell>
        <mxCell id="3YghN3SEEvQ91oXFUEJ3-17" value="" style="html=1;points=[];perimeter=orthogonalPerimeter;outlineConnect=0;targetShapes=umlLifeline;portConstraint=eastwest;newEdgeStyle={&quot;edgeStyle&quot;:&quot;elbowEdgeStyle&quot;,&quot;elbow&quot;:&quot;vertical&quot;,&quot;curved&quot;:0,&quot;rounded&quot;:0};fontSize=16;fillColor=#f8cecc;strokeColor=#b85450;" vertex="1" parent="3YghN3SEEvQ91oXFUEJ3-11">
          <mxGeometry x="55" y="90" width="10" height="40" as="geometry" />
        </mxCell>
        <mxCell id="ivDYFO53s6zkiEk83BOf-8" value="" style="html=1;points=[];perimeter=orthogonalPerimeter;outlineConnect=0;targetShapes=umlLifeline;portConstraint=eastwest;newEdgeStyle={&quot;edgeStyle&quot;:&quot;elbowEdgeStyle&quot;,&quot;elbow&quot;:&quot;vertical&quot;,&quot;curved&quot;:0,&quot;rounded&quot;:0};fontSize=16;fillColor=#f8cecc;strokeColor=#b85450;" vertex="1" parent="3YghN3SEEvQ91oXFUEJ3-11">
          <mxGeometry x="55" y="330" width="10" height="290" as="geometry" />
        </mxCell>
        <mxCell id="3YghN3SEEvQ91oXFUEJ3-28" value="Spider 3" style="shape=umlLifeline;perimeter=lifelinePerimeter;whiteSpace=wrap;html=1;container=1;dropTarget=0;collapsible=0;recursiveResize=0;outlineConnect=0;portConstraint=eastwest;newEdgeStyle={&quot;edgeStyle&quot;:&quot;elbowEdgeStyle&quot;,&quot;elbow&quot;:&quot;vertical&quot;,&quot;curved&quot;:0,&quot;rounded&quot;:0};fontSize=16;fillColor=#f8cecc;strokeColor=#b85450;" vertex="1" parent="1">
          <mxGeometry x="1550" y="240" width="120" height="460" as="geometry" />
        </mxCell>
        <mxCell id="3YghN3SEEvQ91oXFUEJ3-29" value="" style="html=1;points=[];perimeter=orthogonalPerimeter;outlineConnect=0;targetShapes=umlLifeline;portConstraint=eastwest;newEdgeStyle={&quot;edgeStyle&quot;:&quot;elbowEdgeStyle&quot;,&quot;elbow&quot;:&quot;vertical&quot;,&quot;curved&quot;:0,&quot;rounded&quot;:0};fontSize=16;fillColor=#f8cecc;strokeColor=#b85450;" vertex="1" parent="3YghN3SEEvQ91oXFUEJ3-28">
          <mxGeometry x="55" y="100" width="10" height="40" as="geometry" />
        </mxCell>
        <mxCell id="ivDYFO53s6zkiEk83BOf-9" value="" style="html=1;points=[];perimeter=orthogonalPerimeter;outlineConnect=0;targetShapes=umlLifeline;portConstraint=eastwest;newEdgeStyle={&quot;edgeStyle&quot;:&quot;elbowEdgeStyle&quot;,&quot;elbow&quot;:&quot;vertical&quot;,&quot;curved&quot;:0,&quot;rounded&quot;:0};fontSize=16;fillColor=#f8cecc;strokeColor=#b85450;" vertex="1" parent="3YghN3SEEvQ91oXFUEJ3-28">
          <mxGeometry x="55" y="330" width="10" height="110" as="geometry" />
        </mxCell>
        <mxCell id="3YghN3SEEvQ91oXFUEJ3-31" value="Spider 4" style="shape=umlLifeline;perimeter=lifelinePerimeter;whiteSpace=wrap;html=1;container=1;dropTarget=0;collapsible=0;recursiveResize=0;outlineConnect=0;portConstraint=eastwest;newEdgeStyle={&quot;edgeStyle&quot;:&quot;elbowEdgeStyle&quot;,&quot;elbow&quot;:&quot;vertical&quot;,&quot;curved&quot;:0,&quot;rounded&quot;:0};fontSize=16;fillColor=#f8cecc;strokeColor=#b85450;" vertex="1" parent="1">
          <mxGeometry x="1690" y="240" width="120" height="540" as="geometry" />
        </mxCell>
        <mxCell id="3YghN3SEEvQ91oXFUEJ3-32" value="" style="html=1;points=[];perimeter=orthogonalPerimeter;outlineConnect=0;targetShapes=umlLifeline;portConstraint=eastwest;newEdgeStyle={&quot;edgeStyle&quot;:&quot;elbowEdgeStyle&quot;,&quot;elbow&quot;:&quot;vertical&quot;,&quot;curved&quot;:0,&quot;rounded&quot;:0};fontSize=16;fillColor=#f8cecc;strokeColor=#b85450;" vertex="1" parent="3YghN3SEEvQ91oXFUEJ3-31">
          <mxGeometry x="55" y="110" width="10" height="40" as="geometry" />
        </mxCell>
        <mxCell id="ivDYFO53s6zkiEk83BOf-10" value="" style="html=1;points=[];perimeter=orthogonalPerimeter;outlineConnect=0;targetShapes=umlLifeline;portConstraint=eastwest;newEdgeStyle={&quot;edgeStyle&quot;:&quot;elbowEdgeStyle&quot;,&quot;elbow&quot;:&quot;vertical&quot;,&quot;curved&quot;:0,&quot;rounded&quot;:0};fontSize=16;fillColor=#f8cecc;strokeColor=#b85450;" vertex="1" parent="3YghN3SEEvQ91oXFUEJ3-31">
          <mxGeometry x="56" y="330" width="10" height="190" as="geometry" />
        </mxCell>
        <mxCell id="3YghN3SEEvQ91oXFUEJ3-34" value="&lt;font style=&quot;font-size: 12px;&quot;&gt;Create Vector with a Thread&lt;br&gt;&amp;nbsp;for each Spider&lt;/font&gt;" style="text;html=1;align=center;verticalAlign=middle;resizable=0;points=[];autosize=1;strokeColor=none;fillColor=none;fontSize=16;" vertex="1" parent="1">
          <mxGeometry x="875" y="270" width="170" height="50" as="geometry" />
        </mxCell>
        <mxCell id="ivDYFO53s6zkiEk83BOf-2" value="Monitor" style="shape=umlLifeline;perimeter=lifelinePerimeter;whiteSpace=wrap;html=1;container=1;dropTarget=0;collapsible=0;recursiveResize=0;outlineConnect=0;portConstraint=eastwest;newEdgeStyle={&quot;edgeStyle&quot;:&quot;elbowEdgeStyle&quot;,&quot;elbow&quot;:&quot;vertical&quot;,&quot;curved&quot;:0,&quot;rounded&quot;:0};fontSize=16;fillColor=#fff2cc;strokeColor=#d6b656;" vertex="1" parent="1">
          <mxGeometry x="1108" y="240" width="120" height="720" as="geometry" />
        </mxCell>
        <mxCell id="ivDYFO53s6zkiEk83BOf-5" value="" style="html=1;points=[];perimeter=orthogonalPerimeter;outlineConnect=0;targetShapes=umlLifeline;portConstraint=eastwest;newEdgeStyle={&quot;edgeStyle&quot;:&quot;elbowEdgeStyle&quot;,&quot;elbow&quot;:&quot;vertical&quot;,&quot;curved&quot;:0,&quot;rounded&quot;:0};fontSize=16;fillColor=#fff2cc;strokeColor=#d6b656;" vertex="1" parent="ivDYFO53s6zkiEk83BOf-2">
          <mxGeometry x="50" y="280" width="20" height="400" as="geometry" />
        </mxCell>
        <mxCell id="ivDYFO53s6zkiEk83BOf-23" value="" style="ellipse;html=1;shape=endState;fillColor=#000000;strokeColor=#ff0000;fontSize=16;" vertex="1" parent="1">
          <mxGeometry x="1153" y="960" width="30" height="30" as="geometry" />
        </mxCell>
        <mxCell id="ivDYFO53s6zkiEk83BOf-24" value="" style="ellipse;html=1;shape=endState;fillColor=#000000;strokeColor=#ff0000;fontSize=16;" vertex="1" parent="1">
          <mxGeometry x="1315" y="810" width="30" height="30" as="geometry" />
        </mxCell>
        <mxCell id="ivDYFO53s6zkiEk83BOf-25" value="" style="ellipse;html=1;shape=endState;fillColor=#000000;strokeColor=#ff0000;fontSize=16;" vertex="1" parent="1">
          <mxGeometry x="1455" y="880" width="30" height="30" as="geometry" />
        </mxCell>
        <mxCell id="ivDYFO53s6zkiEk83BOf-26" value="" style="ellipse;html=1;shape=endState;fillColor=#000000;strokeColor=#ff0000;fontSize=16;" vertex="1" parent="1">
          <mxGeometry x="1595" y="700" width="30" height="30" as="geometry" />
        </mxCell>
        <mxCell id="ivDYFO53s6zkiEk83BOf-27" value="" style="ellipse;html=1;shape=endState;fillColor=#000000;strokeColor=#ff0000;fontSize=16;" vertex="1" parent="1">
          <mxGeometry x="1736" y="781" width="30" height="30" as="geometry" />
        </mxCell>
        <mxCell id="ivDYFO53s6zkiEk83BOf-28" value="&lt;font style=&quot;font-size: 12px;&quot;&gt;After all the Spider Threads are finished&lt;br&gt;terminate the monitor&lt;/font&gt;" style="text;html=1;align=center;verticalAlign=middle;resizable=0;points=[];autosize=1;strokeColor=none;fillColor=none;fontSize=16;" vertex="1" parent="1">
          <mxGeometry x="860" y="870" width="230" height="50" as="geometry" />
        </mxCell>
        <mxCell id="ivDYFO53s6zkiEk83BOf-30" value="Spiders Start After an internal timer has finished" style="shape=note;whiteSpace=wrap;html=1;backgroundOutline=1;darkOpacity=0.05;fontSize=16;" vertex="1" parent="1">
          <mxGeometry x="1780" y="460" width="200" height="100" as="geometry" />
        </mxCell>
        <mxCell id="ivDYFO53s6zkiEk83BOf-31" value="A Spider will stop for 2 reasons:&lt;br&gt;&lt;br&gt;1. The Spider has been idle for more than 60 seconds.&lt;br&gt;2. The Spider has been running for more that 20 minutes." style="shape=note;whiteSpace=wrap;html=1;backgroundOutline=1;darkOpacity=0.05;fontSize=16;align=left;" vertex="1" parent="1">
          <mxGeometry x="1800" y="600" width="420" height="110" as="geometry" />
        </mxCell>
        <mxCell id="eKNbx3VsPK-ulWpicJed-1" value="&lt;font style=&quot;font-size: 12px;&quot;&gt;Get Another Tupple of Spiders or go to Menu.&lt;/font&gt;" style="text;html=1;strokeColor=none;fillColor=none;align=center;verticalAlign=middle;whiteSpace=wrap;rounded=0;fontSize=16;" vertex="1" parent="1">
          <mxGeometry x="860" y="990" width="105" height="80" as="geometry" />
        </mxCell>
      </root>
    </mxGraphModel>
  </diagram>
  <diagram id="b2NQyDcsJfR7TYIvA1IT" name="NewsIsolation">
    <mxGraphModel dx="1050" dy="679" grid="1" gridSize="10" guides="1" tooltips="1" connect="1" arrows="1" fold="1" page="1" pageScale="1" pageWidth="827" pageHeight="1169" math="0" shadow="0">
      <root>
        <mxCell id="0" />
        <mxCell id="1" parent="0" />
        <mxCell id="wG9Lb_fFLWQdljuIqW_V-3" style="edgeStyle=orthogonalEdgeStyle;rounded=0;orthogonalLoop=1;jettySize=auto;html=1;exitX=0;exitY=0.5;exitDx=0;exitDy=0;exitPerimeter=0;entryX=1;entryY=0.5;entryDx=0;entryDy=0;fontSize=12;startSize=8;endSize=8;strokeColor=default;" edge="1" parent="1" source="wG9Lb_fFLWQdljuIqW_V-1" target="wG9Lb_fFLWQdljuIqW_V-2">
          <mxGeometry relative="1" as="geometry" />
        </mxCell>
        <mxCell id="wG9Lb_fFLWQdljuIqW_V-1" value="&lt;font style=&quot;font-size: 12px;&quot;&gt;DataLake&lt;/font&gt;" style="shape=cylinder3;whiteSpace=wrap;html=1;boundedLbl=1;backgroundOutline=1;size=15;fontSize=16;" vertex="1" parent="1">
          <mxGeometry x="680" y="40" width="120" height="120" as="geometry" />
        </mxCell>
        <mxCell id="wG9Lb_fFLWQdljuIqW_V-2" value="Get News" style="rounded=1;whiteSpace=wrap;html=1;fontSize=16;" vertex="1" parent="1">
          <mxGeometry x="470" y="110" width="120" height="60" as="geometry" />
        </mxCell>
      </root>
    </mxGraphModel>
  </diagram>
</mxfile>
